<?xml version="1.0" standalone="no"?>
<!DOCTYPE svg PUBLIC "-//W3C//DTD SVG 20010904//EN"
 "http://www.w3.org/TR/2001/REC-SVG-20010904/DTD/svg10.dtd">
<svg version="1.0" xmlns="http://www.w3.org/2000/svg"
 width="256.000000pt" height="256.000000pt" viewBox="0 0 256.000000 256.000000"
 preserveAspectRatio="xMidYMid meet">
<metadata>
Created by potrace 1.11, written by Peter Selinger 2001-2013
</metadata>
<g transform="translate(0.000000,256.000000) scale(0.100000,-0.100000)"
fill="#000000" stroke="none">
<path d="M330 2536 c-36 -12 -85 -35 -110 -51 -53 -33 -132 -110 -123 -119 4
-3 2 -6 -4 -6 -14 0 -70 -115 -82 -171 -7 -28 -10 -365 -11 -909 0 -936 -1
-912 55 -1025 48 -99 163 -196 273 -232 53 -17 113 -18 957 -18 982 0 921 -3
1034 57 63 33 154 127 186 191 56 116 55 90 55 1027 -1 537 -4 882 -11 910
-33 151 -165 297 -314 348 -46 15 -128 17 -945 19 l-895 2 -65 -23z"/>
</g>
</svg>
